<?xml version="1.0" encoding="UTF-8" standalone="no"?>
<!-- Created with Inkscape (http://www.inkscape.org/) -->

<svg
   width="97.543053mm"
   height="97.772247mm"
   viewBox="0 0 97.543053 97.772247"
   version="1.1"
   id="svg1022"
   inkscape:version="1.1.1 (c3084ef, 2021-09-22)"
   sodipodi:docname="NFT-logo1.svg"
   xmlns:inkscape="http://www.inkscape.org/namespaces/inkscape"
   xmlns:sodipodi="http://sodipodi.sourceforge.net/DTD/sodipodi-0.dtd"
   xmlns="http://www.w3.org/2000/svg"
   xmlns:svg="http://www.w3.org/2000/svg">
  <sodipodi:namedview
     id="namedview1024"
     pagecolor="#ffffff"
     bordercolor="#666666"
     borderopacity="1.0"
     inkscape:pageshadow="2"
     inkscape:pageopacity="0.0"
     inkscape:pagecheckerboard="0"
     inkscape:document-units="mm"
     showgrid="false"
     fit-margin-top="0"
     fit-margin-left="0"
     fit-margin-right="0"
     fit-margin-bottom="0"
     inkscape:zoom="1.2810466"
     inkscape:cx="112.01779"
     inkscape:cy="176.02795"
     inkscape:window-width="1680"
     inkscape:window-height="1025"
     inkscape:window-x="0"
     inkscape:window-y="25"
     inkscape:window-maximized="0"
     inkscape:current-layer="layer1" />
  <defs
     id="defs1019" />
  <g
     inkscape:label="Layer 1"
     inkscape:groupmode="layer"
     id="layer1"
     transform="translate(-23.92945,-33.72862)">
    <path
       style="fill:#ff0000;stroke-width:0"
       d=""
       id="path1443"
       transform="matrix(0.26458333,0,0,0.26458333,23.92945,33.72862)" />
    <path
       style="fill:#ff0000;stroke-width:0"
       d=""
       id="path1482"
       transform="matrix(0.26458333,0,0,0.26458333,23.92945,33.72862)" />
    <path
       style="fill:#ff0000;stroke-width:0"
       d=""
       id="path1560"
       transform="matrix(0.26458333,0,0,0.26458333,23.92945,33.72862)" />
    <path
       style="fill:#ff0000;stroke-width:0"
       d=""
       id="path1831"
       transform="matrix(0.26458333,0,0,0.26458333,23.92945,33.72862)" />
    <path
       style="fill:#ff0000;stroke-width:0"
       d=""
       id="path2361"
       transform="matrix(0.26458333,0,0,0.26458333,23.92945,33.72862)" />
    <path
       style="fill:#ff0000;stroke-width:0"
       d=""
       id="path2400"
       transform="matrix(0.26458333,0,0,0.26458333,23.92945,33.72862)" />
    <path
       style="fill:#ff0000;stroke-width:0"
       d=""
       id="path2439"
       transform="matrix(0.26458333,0,0,0.26458333,23.92945,33.72862)" />
    <g
       id="g3766">
      <path
         style="fill:#000000;stroke-width:0.176389"
         d="M 23.92945,82.614852 V 33.72862 h 48.77153 48.77152 v 48.771532 48.771538 l -19.53506,0.001 c -10.74429,7.1e-4 -32.69148,0.0523 -48.77153,0.11471 l -29.23646,0.11347 z m 24.73216,23.552558 0.0505,-1.64455 1.41111,1.63653 c 0.77611,0.90009 1.51033,1.64013 1.63159,1.64455 0.16506,0.006 0.22049,-0.54626 0.22049,-2.19684 0,-1.81714 -0.0454,-2.20486 -0.25796,-2.20486 -0.20386,0 -0.26861,0.33833 -0.30868,1.61305 l -0.0507,1.61304 -1.38988,-1.61304 c -0.76443,-0.88718 -1.49865,-1.61305 -1.6316,-1.61305 -0.19181,0 -0.24172,0.45525 -0.24172,2.20486 0,1.81804 0.0453,2.20486 0.2582,2.20486 0.20459,0 0.26867,-0.34139 0.30868,-1.64455 z m 4.90117,0.58622 v -1.05833 h 0.88195 c 0.66636,0 0.88194,-0.0647 0.88194,-0.26459 0,-0.1999 -0.21558,-0.26458 -0.88194,-0.26458 h -0.88195 v -0.61736 -0.61736 h 0.88195 c 0.67794,0 0.88194,-0.0631 0.88194,-0.27264 0,-0.22416 -0.21174,-0.26337 -1.19062,-0.22049 l -1.19063,0.0522 -0.0504,1.92894 c -0.055,2.10577 -0.007,2.39258 0.39764,2.39258 0.21256,0 0.27012,-0.22554 0.27012,-1.05833 z m 4.05695,-0.88194 v -1.94028 h 0.70555 c 0.50957,0 0.70556,-0.0735 0.70556,-0.26459 0,-0.21754 -0.31358,-0.26458 -1.76389,-0.26458 -1.45031,0 -1.76389,0.047 -1.76389,0.26458 0,0.19109 0.19599,0.26459 0.70556,0.26459 h 0.70555 v 1.94028 c 0,1.82268 0.0214,1.94027 0.35278,1.94027 0.3314,0 0.35278,-0.11759 0.35278,-1.94027 z m 5.0351,1.50732 c 0.75438,-0.75438 0.52938,-1.26987 -1.09124,-2.50024 -0.4381,-0.3326 -0.46619,-0.40987 -0.24562,-0.67564 0.24083,-0.29018 0.6129,-0.29335 1.28475,-0.011 0.23433,0.0985 0.30868,0.0448 0.30868,-0.22303 0,-0.4026 -0.31968,-0.56691 -1.10297,-0.56691 -0.69457,0 -1.19009,0.4468 -1.19009,1.07307 0,0.54871 0.23283,0.83168 1.15145,1.39942 0.45623,0.28196 0.61673,0.49495 0.57795,0.76693 -0.0708,0.49625 -0.92353,0.61021 -1.39222,0.18605 -0.32403,-0.29325 -0.33718,-0.28666 -0.33718,0.16885 0,0.84523 1.3249,1.09404 2.03649,0.38245 z m 3.43683,-1.19864 0.005,-1.6316 0.66724,0.77183 0.66725,0.77182 0.64695,-0.77182 0.64696,-0.77183 0.003,1.6316 c 0.003,1.51285 0.0291,1.63159 0.35623,1.63159 0.33397,0 0.35278,-0.11759 0.35278,-2.20486 0,-2.04549 -0.0241,-2.20486 -0.3338,-2.20486 -0.1933,0 -0.61692,0.37124 -1.00639,0.88195 -0.36991,0.48507 -0.67964,0.88194 -0.68828,0.88194 -0.009,0 -0.31836,-0.39687 -0.68828,-0.88194 -0.38947,-0.51071 -0.81309,-0.88195 -1.00638,-0.88195 -0.30968,0 -0.33381,0.15937 -0.33381,2.20486 0,2.08727 0.0188,2.20486 0.35278,2.20486 0.32697,0 0.35316,-0.11934 0.35804,-1.63159 z m 4.66904,0.92604 c 0.30837,-0.68384 0.34475,-0.70556 1.18232,-0.70556 0.8229,0 0.87662,0.0298 1.12531,0.62504 0.24228,0.57986 0.67752,0.94652 0.88146,0.74258 0.0479,-0.0479 -0.33256,-1.0484 -0.84545,-2.22336 -0.61339,-1.40518 -1.02633,-2.13741 -1.20661,-2.13958 -0.18384,-0.002 -0.54683,0.65221 -1.10244,1.98752 -0.45558,1.09494 -0.82834,2.08713 -0.82834,2.20486 0,0.47652 0.49563,0.16962 0.79375,-0.4915 z m 0.61736,-1.2966 c 0,-0.2517 0.4156,-1.17285 0.52917,-1.17285 0.11356,0 0.52916,0.92115 0.52916,1.17285 0,0.034 -0.23812,0.0619 -0.52916,0.0619 -0.29104,0 -0.52917,-0.0279 -0.52917,-0.0619 z m 6.03833,1.53965 c 1.15359,-0.59589 1.32205,-2.3127 0.32479,-3.30996 -0.49133,-0.49133 -0.66636,-0.54847 -1.86517,-0.60901 l -1.32295,-0.0668 v 2.24469 2.24469 l 1.19063,-0.12729 c 0.65484,-0.07 1.40756,-0.23935 1.6727,-0.37631 z m -2.29726,-1.76402 0.0513,-1.56584 0.88086,0.0322 c 1.06485,0.039 1.67678,0.60302 1.67678,1.54555 0,0.94584 -0.48052,1.37313 -1.65359,1.47041 l -1.00663,0.0835 z m 6.48949,1.87375 c 0,-0.30574 -0.1176,-0.35278 -0.88195,-0.35278 h -0.88194 v -0.61736 -0.61736 h 0.88194 c 0.66636,0 0.88195,-0.0647 0.88195,-0.26459 0,-0.1999 -0.21559,-0.26458 -0.88195,-0.26458 h -0.88194 v -0.70556 -0.70555 h 0.88194 c 0.66636,0 0.88195,-0.0647 0.88195,-0.26459 0,-0.20998 -0.25479,-0.26458 -1.23473,-0.26458 h -1.23472 v 2.20486 2.20486 h 1.23472 c 1.11713,0 1.23473,-0.0336 1.23473,-0.35277 z m 5.11527,0 c 0,-0.31002 -0.11759,-0.35278 -0.97013,-0.35278 h -0.97014 v -0.61736 -0.61736 h 0.88194 c 0.66636,0 0.88195,-0.0647 0.88195,-0.26459 0,-0.1999 -0.21559,-0.26458 -0.88195,-0.26458 h -0.88194 v -0.70556 -0.70555 h 0.88194 c 0.66636,0 0.88195,-0.0647 0.88195,-0.26459 0,-0.20998 -0.25479,-0.26458 -1.23473,-0.26458 h -1.23472 v 2.08727 c 0,1.148 0.0529,2.14019 0.11759,2.20486 0.0647,0.0647 0.65999,0.11759 1.32292,0.11759 1.08773,0 1.20532,-0.0344 1.20532,-0.35277 z m 1.16711,-0.35278 c 0.27526,-0.68795 0.30375,-0.70556 1.14152,-0.70556 0.82482,0 0.87361,0.0282 1.21915,0.70556 0.3559,0.69762 1.03966,1.03392 0.80692,0.39687 -0.61042,-1.6708 -1.82054,-4.10056 -2.04107,-4.09818 -0.24982,0.003 -1.94101,3.65046 -1.94089,4.18638 1e-4,0.49949 0.55195,0.17079 0.81437,-0.48507 z m 0.59678,-1.2966 c 0,-0.23883 0.4126,-1.17285 0.51811,-1.17285 0.14057,0 0.54023,0.7891 0.54023,1.06664 0,0.0924 -0.23813,0.16809 -0.52917,0.16809 -0.29104,0 -0.52917,-0.0279 -0.52917,-0.0619 z m 4.93889,1.64938 c 0.72589,-0.72589 0.35246,-1.74292 -0.87256,-2.3764 -0.66231,-0.3425 -0.72376,-0.92179 -0.11401,-1.07483 0.2335,-0.0586 0.59702,-0.0143 0.80782,0.0986 0.34661,0.18551 0.37771,0.16585 0.32511,-0.20548 -0.0508,-0.35874 -0.15604,-0.41061 -0.83288,-0.41061 -0.622,0 -0.83885,0.0869 -1.10009,0.44097 -0.46351,0.62817 -0.26036,1.12498 0.75969,1.85781 0.56417,0.40531 0.85317,0.73392 0.81634,0.92822 -0.069,0.36415 -0.85925,0.48963 -1.3682,0.21725 -0.31022,-0.16603 -0.3615,-0.14175 -0.3615,0.1712 0,0.68618 1.3598,0.93378 1.94028,0.3533 z m 2.8241,-0.83785 c 0.002,-1.1214 0.0427,-1.24191 0.70368,-2.07257 0.78969,-0.99238 0.84167,-1.14653 0.38661,-1.14653 -0.17541,0 -0.55245,0.31562 -0.83784,0.70139 -0.2854,0.38576 -0.5586,0.70156 -0.6071,0.70179 -0.0485,1.7e-4 -0.31163,-0.3154 -0.58471,-0.70139 -0.28675,-0.40531 -0.64071,-0.70179 -0.83784,-0.70179 -0.18774,0 -0.34134,0.0431 -0.34134,0.0958 0,0.0527 0.3175,0.51629 0.70555,1.03027 0.65896,0.87278 0.70556,1.01208 0.70556,2.1091 0,1.057 0.0353,1.17459 0.35278,1.17459 0.31775,0 0.35296,-0.11821 0.35465,-1.19062 z m -36.19555,-2.48315 c 0.0474,-0.64279 0.008,-0.73595 -0.30868,-0.73595 -0.38289,0 -0.46513,0.39423 -0.24986,1.19784 0.16813,0.62765 0.49837,0.35456 0.55854,-0.46189 z m -17.56568,-7.996918 0.0489,-2.49845 2.17995,2.49845 c 1.66594,1.90934 2.27941,2.49846 2.60174,2.49846 h 0.42178 v -3.35139 -3.35139 h -0.44097 -0.44097 v 2.46945 c 0,1.35819 -0.0595,2.46632 -0.1323,2.4625 -0.0728,-0.004 -1.08479,-1.1149 -2.24895,-2.46908 -1.76611,-2.05437 -2.19701,-2.4622 -2.60174,-2.4625 l -0.48507,-3.7e-4 v 3.35139 3.35139 h 0.52432 0.52433 z m 7.72186,0.91096 v -1.5875 h 1.32291 c 1.29352,0 1.32292,-0.01 1.32292,-0.44097 0,-0.43117 -0.0294,-0.44097 -1.32292,-0.44097 H 50.2114 v -0.88195 -0.88194 h 1.32291 c 1.29352,0 1.32292,-0.01 1.32292,-0.44097 v -0.44098 h -1.85208 -1.85209 v 3.35139 3.35139 h 0.52917 0.52917 z m 6.35,-1.32292 v -2.91041 h 1.14652 c 1.10537,0 1.14653,-0.0158 1.14653,-0.44097 v -0.44098 h -2.82222 -2.82222 v 0.44098 c 0,0.42514 0.0412,0.44097 1.14652,0.44097 h 1.14653 v 2.91041 2.91042 h 0.52917 0.52917 z m 11.13613,2.70611 0.68192,-0.20431 v -1.47138 -1.47139 h -1.14653 c -1.10537,0 -1.14652,0.0158 -1.14652,0.44097 0,0.38638 0.0764,0.44098 0.61736,0.44098 0.59983,0 0.61736,0.0195 0.61736,0.68668 0,0.78871 -0.16861,0.90082 -1.35479,0.90082 -1.08519,0 -1.86479,-0.41022 -2.32049,-1.22103 -0.92491,-1.64566 -0.0319,-3.46628 1.87706,-3.82701 0.37264,-0.0704 0.9614,0.0139 1.63159,0.23363 l 1.04857,0.34379 v -0.49379 c 0,-0.44831 -0.0917,-0.52046 -0.99597,-0.78333 -1.80621,-0.52508 -3.42212,-0.0367 -4.38389,1.32482 -0.46146,0.65329 -0.52917,0.90117 -0.52917,1.93745 0,1.47175 0.53515,2.40968 1.70538,2.98893 0.87148,0.43137 2.5723,0.51147 3.69812,0.17417 z m 5.16835,0.0323 c 0.32749,-0.12451 0.45246,-0.30024 0.45246,-0.63624 0,-0.37721 -0.0579,-0.43828 -0.30868,-0.32585 -0.16978,0.0761 -0.67452,0.17087 -1.12166,0.21061 -0.71803,0.0638 -0.85707,0.0162 -1.19062,-0.40786 -0.20771,-0.26406 -0.37765,-0.54877 -0.37765,-0.6327 0,-0.0839 0.71437,-0.15261 1.5875,-0.15261 1.75637,0 1.7986,-0.0353 1.34429,-1.12257 -0.91461,-2.18898 -3.81374,-1.48074 -3.81374,0.93167 0,0.8508 0.35605,1.63714 0.92019,2.03228 0.4422,0.30973 1.81608,0.3663 2.50791,0.10327 z m -2.54615,-2.6502 c 0,-0.35381 0.71826,-0.88195 1.19944,-0.88195 0.56725,0 0.91722,0.28267 0.91722,0.74084 0,0.27046 -0.15679,0.3175 -1.05833,0.3175 -0.58796,0 -1.05833,-0.0784 -1.05833,-0.17639 z m 4.93889,1.15273 c 0,-1.81758 0.12043,-2.03468 1.12872,-2.03468 0.63904,0 0.81155,0.46623 0.81155,2.19327 0,1.49403 0.005,1.5109 0.44098,1.5109 h 0.44097 v -1.77746 c 0,-1.72937 -0.014,-1.7914 -0.5156,-2.29305 -0.57895,-0.57895 -1.02442,-0.64043 -1.78622,-0.24649 -0.2983,0.15426 -0.5204,0.1919 -0.5204,0.0882 0,-0.0995 -0.19844,-0.18092 -0.44098,-0.18092 h -0.44097 v 2.20486 2.20486 h 0.44097 c 0.43931,0 0.44098,-0.006 0.44098,-1.66949 z m 7.31184,1.46479 c 0.30322,-0.13816 0.44927,-0.34498 0.44927,-0.63623 0,-0.3461 -0.0611,-0.40414 -0.30868,-0.29318 -0.16978,0.0761 -0.67854,0.17114 -1.13058,0.21121 -0.6604,0.0585 -0.89436,3.5e-4 -1.19063,-0.29587 -0.72618,-0.72619 -0.50998,-0.8979 1.13058,-0.8979 h 1.49931 v -0.60382 c 0,-0.8025 -0.70767,-1.64055 -1.51288,-1.79161 -1.15788,-0.21722 -2.28953,0.63341 -2.3687,1.78049 -0.0838,1.21365 0.008,1.53908 0.60074,2.13189 0.52379,0.52379 0.71258,0.59972 1.49101,0.59972 0.49021,0 1.09346,-0.0921 1.34056,-0.2047 z m -2.54934,-2.57827 c 0,-0.0754 0.12356,-0.31356 0.27458,-0.52917 0.3611,-0.51554 1.39386,-0.54718 1.65949,-0.0508 0.33215,0.62062 0.21428,0.71715 -0.87574,0.71715 -0.58208,0 -1.05833,-0.0617 -1.05833,-0.13714 z m 4.93889,1.28367 c 0,-1.26413 0.0553,-1.55465 0.35277,-1.85209 0.40271,-0.4027 0.58456,-0.42994 1.08439,-0.16244 0.28425,0.15212 0.40474,0.12557 0.60028,-0.13229 0.21437,-0.28272 0.19926,-0.36082 -0.12219,-0.63131 -0.50568,-0.42551 -0.97157,-0.38646 -1.4823,0.12428 -0.39952,0.39951 -0.43295,0.40632 -0.43295,0.0882 0,-0.26548 -0.1217,-0.34476 -0.52917,-0.34476 h -0.52917 v 2.20486 2.20486 h 0.52917 0.52917 z m 4.50741,1.30754 c 0.0853,-0.13808 0.17219,-0.13808 0.31027,0 0.4121,0.4121 1.53232,0.16371 1.53232,-0.33976 0,-0.23055 -0.0965,-0.29216 -0.35278,-0.22514 -0.3334,0.0872 -0.35278,0.005 -0.35278,-1.48848 0,-1.92058 -0.23282,-2.25278 -1.57891,-2.25278 -0.99734,0 -1.4197,0.29885 -1.4197,1.00454 v 0.52037 l 0.46476,-0.36558 c 0.75852,-0.59665 1.65191,-0.39753 1.65191,0.36818 0,0.2098 -0.23079,0.37956 -0.71202,0.52374 -0.834,0.24987 -1.58104,0.88334 -1.58104,1.34067 0,0.65123 0.50753,1.106 1.23431,1.106 0.37683,0 0.73848,-0.0863 0.80366,-0.19176 z m -0.75915,-0.45422 c -0.43197,-0.17431 -0.24602,-0.91926 0.29992,-1.20157 0.7018,-0.36292 0.71432,-0.35693 0.71432,0.34204 0,0.4237 -0.10465,0.66716 -0.34119,0.79375 -0.18765,0.10043 -0.36624,0.17633 -0.39687,0.16867 -0.0306,-0.008 -0.15491,-0.054 -0.27618,-0.10289 z m 5.92023,0.078 c 0.0535,-0.46434 0.0378,-0.47369 -0.48875,-0.29014 -0.8586,0.29931 -1.06586,-0.001 -1.06586,-1.54472 v -1.30132 h 0.70556 c 0.58796,0 0.70556,-0.0588 0.70556,-0.35277 0,-0.29399 -0.1176,-0.35278 -0.70556,-0.35278 -0.64947,0 -0.70556,-0.038 -0.70556,-0.4777 0,-0.47417 -0.006,-0.47188 -0.80358,0.30868 -0.70435,0.68927 -0.75881,0.79334 -0.44097,0.84274 0.33276,0.0517 0.36261,0.1788 0.36261,1.54341 0,1.87048 0.26637,2.24065 1.55269,2.15778 0.75485,-0.0486 0.83348,-0.0961 0.88386,-0.53318 z m 4.53805,-0.0213 c 0.98803,-0.98803 1.02965,-2.27566 0.10551,-3.26494 -1.40452,-1.50355 -4.0815,-0.4514 -4.0815,1.60417 0,1.4029 0.90833,2.23777 2.44299,2.2454 0.83778,0.004 1.00981,-0.0614 1.533,-0.58463 z m -2.15772,-0.29052 c -0.62731,-0.25884 -0.9928,-0.96868 -0.86087,-1.67195 0.32012,-1.70635 2.78205,-1.41391 2.78205,0.33046 0,1.05673 -0.96994,1.734 -1.92118,1.34149 z m 4.71072,-0.39898 c 0.004,-1.8979 0.56819,-2.74588 1.49669,-2.24896 0.40127,0.21475 0.48584,0.21365 0.62615,-0.008 0.25218,-0.39865 0.19817,-0.66864 -0.17357,-0.86759 -0.54942,-0.29404 -0.88765,-0.21562 -1.43627,0.33301 l -0.5156,0.5156 v -0.42741 c 0,-0.3383 -0.0919,-0.4274 -0.44097,-0.4274 h -0.44097 v 2.20486 2.20486 h 0.44097 c 0.42958,0 0.44104,-0.033 0.44357,-1.27882 z M 68.30889,84.810892 c 0.81354,-0.81353 0.84645,-1.82652 0.0841,-2.58884 -0.28358,-0.28358 -0.64077,-0.5156 -0.79375,-0.5156 -0.21207,0 -0.27815,-0.18858 -0.27815,-0.79375 0,-0.56574 0.0715,-0.79375 0.2489,-0.79375 0.40684,0 1.16221,-1.03878 1.16221,-1.59825 0,-0.59684 -0.78822,-1.54285 -1.32292,-1.58775 -0.79285,-0.0666 -1.12065,0.0332 -1.56345,0.47602 -0.76743,0.76744 -0.53023,2.14261 0.44395,2.57383 0.43845,0.19407 0.50214,0.31748 0.50214,0.97296 0,0.56596 -0.0684,0.75069 -0.27815,0.75069 -0.15298,0 -0.51017,0.23202 -0.79375,0.5156 -0.40393,0.40392 -0.5156,0.67386 -0.5156,1.24631 0,0.89818 0.21717,1.32806 0.84228,1.6673 0.83881,0.4552 1.59005,0.34735 2.26216,-0.32477 z m -2.08327,-0.16991 c -0.79355,-0.60291 -0.61978,-2.055 0.2872,-2.39983 0.54816,-0.20841 1.44957,0.0739 1.69396,0.53059 0.69189,1.2928 -0.83887,2.73709 -1.98116,1.86924 z m 9.73074,-0.0201 c 0.27711,-0.1433 0.60908,-0.49832 0.73771,-0.78892 l 0.23388,-0.52837 2.29624,-0.0489 2.29623,-0.0489 0.0557,-1.4993 c 0.0544,-1.46491 0.0684,-1.5074 0.61102,-1.85209 1.10668,-0.70302 1.00376,-2.16345 -0.19467,-2.76213 -1.65221,-0.82537 -3.16358,1.2572 -1.85909,2.56169 0.25577,0.25577 0.57327,0.46503 0.70556,0.46503 0.18173,0 0.24053,0.32338 0.24053,1.32291 v 1.32292 l -2.07257,-0.004 -2.07257,-0.004 -0.26458,-0.56945 c -0.60044,-1.29228 -2.45899,-1.4382 -3.18352,-0.24994 -0.53411,0.87597 -0.45113,1.63738 0.25546,2.34397 0.67235,0.67235 1.36521,0.77846 2.21469,0.33918 z m -1.85229,-0.70158 c -0.73171,-0.73171 -0.52169,-1.81081 0.42907,-2.20463 1.0456,-0.4331 2.17621,0.63534 1.7787,1.68089 -0.38694,1.01773 -1.45937,1.27214 -2.20777,0.52374 z m -12.60573,-3.71118 c 0.69954,-0.36175 1.06028,-0.93221 1.06028,-1.6767 0,-0.74729 -0.36107,-1.31513 -1.06904,-1.68123 -0.51834,-0.26805 -0.51846,-0.2685 -0.51846,-1.93927 v -1.67117 h 2.21625 2.21625 l 0.44526,0.52917 c 0.35767,0.42507 0.58364,0.52916 1.14871,0.52916 0.88871,0 1.73464,-0.75595 1.73464,-1.55014 0,-0.61615 -0.57576,-1.40785 -1.1951,-1.64332 -0.86507,-0.3289 -2.15629,0.47062 -2.15629,1.33517 0,0.23057 -0.36682,0.27079 -2.46944,0.27079 h -2.46945 v 1.94465 c 0,1.88323 -0.0132,1.94966 -0.41781,2.10349 -1.1025,0.41917 -1.52671,1.9768 -0.79255,2.91013 0.62854,0.79905 1.40648,0.98413 2.26675,0.53927 z m -1.69331,-0.67865 c -0.34313,-0.29514 -0.48021,-0.58005 -0.48021,-0.99805 0,-0.69248 0.71275,-1.41111 1.39957,-1.41111 0.61929,0 1.30506,0.7415 1.30506,1.41111 0,0.66961 -0.68577,1.41111 -1.30506,1.41111 -0.24154,0 -0.65525,-0.18588 -0.91936,-0.41306 z m 18.49351,-2.57071 0.57605,-0.51432 0.0546,-3.34678 c 0.0854,-5.23596 0.11239,-5.209 -5.12286,-5.11887 l -3.33978,0.0575 -0.51438,0.57605 -0.51438,0.57604 0.006,3.4809 c 0.009,4.98966 -0.1921,4.7886 4.79756,4.79756 l 3.4809,0.006 0.57604,-0.51432 z m 9.26906,-2.4068 c 1.01269,-0.70932 1.14141,-2.10121 0.27448,-2.96813 -0.9297,-0.92971 -2.58347,-0.53689 -3.07281,0.72988 -0.1275,0.33005 -0.28694,0.39687 -0.9469,0.39687 -0.7016,0 -0.82499,-0.0607 -1.06452,-0.52393 -0.51624,-0.99831 -1.64523,-1.18916 -2.54681,-0.43053 -1.05841,0.89059 -0.52589,2.60669 0.87817,2.83001 0.50973,0.0811 0.7326,0.011 1.19062,-0.37441 0.30993,-0.26079 0.56351,-0.58617 0.56351,-0.72307 0,-0.18092 0.23965,-0.2489 0.87741,-0.2489 0.79248,0 0.90337,0.0502 1.14552,0.51846 0.36611,0.70797 0.93394,1.06904 1.68124,1.06904 0.34488,0 0.80392,-0.12388 1.02009,-0.27529 z m -1.99825,-0.68683 c -0.54451,-0.54451 -0.55149,-1.17346 -0.0199,-1.79147 0.57395,-0.66725 1.42909,-0.6592 2.0124,0.0189 1.13524,1.31979 -0.7596,3.00543 -1.9925,1.77253 z m -25.52901,-5.38307 c 0.31269,-0.19065 0.61896,-0.54754 0.68058,-0.79309 l 0.11205,-0.44644 h 2.33382 c 2.30602,0 2.33616,0.005 2.53087,0.43249 0.26585,0.58347 1.16447,1.02998 1.79443,0.89161 0.99368,-0.21824 1.5634,-1.33669 1.16572,-2.28848 -0.29571,-0.70773 -0.73475,-0.9759 -1.5977,-0.9759 -0.68018,0 -1.50288,0.62324 -1.50288,1.13851 0,0.23184 -0.34159,0.2726 -2.28478,0.2726 h -2.28478 l -0.28649,-0.60373 c -0.26377,-0.55585 -1.13382,-1.16016 -1.67034,-1.16016 -0.48533,0 -1.44474,0.61171 -1.68346,1.07336 -0.32743,0.63318 -0.32474,1.10587 0.01,1.75315 0.51902,1.00368 1.68963,1.31175 2.68297,0.70608 z m -1.98766,-0.61415 c -0.23954,-0.23955 -0.43295,-0.63959 -0.43295,-0.89552 0,-0.56549 0.87691,-1.49375 1.41111,-1.49375 0.5342,0 1.41111,0.92826 1.41111,1.49375 0,0.64022 -0.73106,1.32847 -1.41111,1.32847 -0.34367,0 -0.70524,-0.16004 -0.97816,-0.43295 z m 24.38463,0.22134 c 0.80549,-0.75175 0.58903,-2.19767 -0.39621,-2.64657 -0.38718,-0.17642 -0.43248,-0.30495 -0.43248,-1.22708 0,-1.02687 0.002,-1.03002 0.52916,-1.03002 h 0.52917 v -1.05833 c 0,-0.84609 0.0558,-1.05833 0.27815,-1.05833 0.15298,0 0.51017,-0.23202 0.79375,-0.5156 0.76233,-0.76233 0.72941,-1.77531 -0.0841,-2.58885 -1.23799,-1.23798 -3.09146,-0.45486 -3.10052,1.31003 -0.003,0.61136 0.0987,0.86581 0.51167,1.27882 0.28358,0.28358 0.64077,0.5156 0.79375,0.5156 0.21207,0 0.27815,0.18858 0.27815,0.79375 v 0.79375 h -2.91478 c -2.90371,0 -2.91538,-0.002 -3.07363,-0.41781 -0.2461,-0.64729 -1.03091,-1.16969 -1.75724,-1.16969 -1.75388,0 -2.56099,2.13315 -1.23065,3.25256 1.01954,0.85789 2.5252,0.49888 2.98552,-0.71186 0.15928,-0.41894 0.18989,-0.42404 2.54683,-0.42404 h 2.38562 v 1.05834 c 0,0.77611 -0.0641,1.05833 -0.24053,1.05833 -0.48131,0 -1.17058,0.90382 -1.17058,1.53496 0,0.8166 0.27116,1.2676 0.93993,1.5633 0.66393,0.29356 1.29628,0.18594 1.82904,-0.31126 z m -8.58633,-3.89677 c -1.31593,-0.66204 -0.90386,-2.5944 0.55325,-2.5944 0.64164,0 1.38355,0.69982 1.38355,1.30507 0,0.49966 -0.62116,1.26403 -1.14652,1.41085 -0.19403,0.0542 -0.54966,-5.3e-4 -0.79028,-0.12152 z m 7.98965,-3.65016 c -0.8284,-0.34194 -1.02907,-1.62968 -0.35294,-2.26488 0.85839,-0.80641 2.23759,-0.20524 2.23759,0.97532 0,0.98928 -0.98285,1.66179 -1.88465,1.28956 z"
         id="path894" />
      <path
         style="fill:#ff0000;stroke-width:0"
         d="m 175.82144,163.89994 c -2.78353,-1.11827 -3.30624,-3.87708 -3.30624,-17.44998 0,-12.63579 0.009,-12.70177 2.01441,-14.58566 1.96786,-1.84871 2.31927,-1.89244 15.20419,-1.89244 h 13.18977 l 2.16442,2.16292 2.16443,2.16293 0.26369,12.94475 0.26368,12.94475 -2.16611,2.26094 -2.16611,2.26093 -12.9292,-0.0495 c -7.11106,-0.0272 -13.72468,-0.36906 -14.69693,-0.75966 z"
         id="path1170"
         transform="matrix(0.26458333,0,0,0.26458333,23.92945,33.72862)" />
      <path
         style="fill:#ff0000;stroke-width:0"
         d="m 187.73712,164.15456 c -11.58712,-0.27066 -12.73863,-0.53299 -13.72478,-3.12679 -0.43422,-1.14206 -0.80716,-7.70747 -0.82876,-14.5898 l -0.0393,-12.51333 2.07082,-1.78124 c 1.97243,-1.69661 2.67372,-1.78124 14.76133,-1.78124 h 12.69052 l 1.99964,2.14668 c 1.92855,2.07038 2.0152,2.59389 2.43775,14.72708 l 0.43812,12.5804 -2.52402,2.44638 c -1.96182,1.90146 -3.12431,2.40899 -5.21901,2.27852 -1.48223,-0.0923 -6.91028,-0.26632 -12.06232,-0.38666 z"
         id="path1248"
         transform="matrix(0.26458333,0,0,0.26458333,23.92945,33.72862)" />
      <path
         style="fill:#ff0000;stroke-width:0"
         d="m 181.78496,165.1908 c -6.99413,-0.24248 -8.75135,-1.4421 -9.42447,-6.43389 -0.21225,-1.57404 -0.32386,-7.25763 -0.32894,-16.75072 l -0.004,-7.92005 1.95031,-2.1885 1.95031,-2.18851 4.07504,-0.0669 c 2.24127,-0.0368 6.53396,-0.11211 9.53932,-0.1674 6.75548,-0.12429 9.70112,-0.0436 11.95312,0.3276 0.61026,0.10058 -1.21313,0.12979 -10.97736,0.17582 -12.95442,0.0611 -13.04799,0.0655 -14.37427,0.67961 -0.74749,0.34612 -0.9334,0.48644 -1.88379,1.42189 -1.19181,1.17306 -1.45452,1.84065 -1.64314,4.17554 -0.13068,1.61761 -0.13174,16.2354 -10e-4,18.84249 0.30698,6.13856 1.09023,8.20013 3.37694,8.88833 0.52073,0.15672 3.01483,0.38341 5.89011,0.53536 1.10017,0.0581 6.41199,0.12938 11.80403,0.15831 l 9.80372,0.0526 2.0719,-2.13396 2.07189,-2.13395 0.004,0.45803 0.004,0.45804 -2.17108,1.95197 -2.17107,1.95197 -9.70886,-0.0105 c -5.33987,-0.006 -10.65291,-0.0432 -11.80675,-0.0832 z"
         id="path1287"
         transform="matrix(0.26458333,0,0,0.26458333,23.92945,33.72862)" />
      <path
         style="fill:#ff0000;stroke-width:0"
         d="m 205.14998,132.10537 c -1.9189,-1.92983 -1.97431,-2.03954 -0.69386,-1.3737 0.94257,0.49014 1.72011,1.30085 2.22519,2.32016 0.22444,0.45292 0.38782,0.84375 0.36307,0.86849 -0.0247,0.0247 -0.87723,-0.79198 -1.8944,-1.81495 z"
         id="path1326"
         transform="matrix(0.26458333,0,0,0.26458333,23.92945,33.72862)" />
      <path
         style="fill:#ff0000;stroke-width:0"
         d="m 180.67316,165.09053 c -2.5834,-0.14768 -4.57069,-0.57191 -5.6545,-1.20707 -1.4353,-0.84114 -2.22293,-2.37939 -2.594,-5.06615 -0.19578,-1.4175 -0.29147,-6.1883 -0.31071,-15.49021 l -0.0191,-9.23371 1.92896,-2.15834 c 1.06093,-1.18709 1.9349,-2.16 1.94215,-2.16201 0.007,-0.002 3.32836,-0.0665 7.38022,-0.14335 11.08549,-0.21019 15.24608,-0.18153 17.36861,0.11965 0.32877,0.0466 -1.22109,0.0956 -4.00063,0.1264 l -4.53731,0.0503 5.31872,0.0229 5.31871,0.0229 2.20472,2.21986 2.20471,2.21986 0.25442,12.87823 0.25443,12.87823 -0.89975,0.92884 c -0.49486,0.51087 -1.47011,1.52162 -2.16721,2.24613 l -1.26745,1.31728 -9.75765,-0.0625 c -9.11391,-0.0584 -11.77709,-0.12594 -15.07556,-0.3823 -2.56358,-0.19924 -3.2476,-0.41563 -4.06031,-1.28448 -1.34918,-1.44238 -1.76252,-4.014 -1.88639,-11.73623 l -0.0689,-4.29337 -0.0171,3.70957 c -0.0414,8.98573 0.6548,12.17349 2.8813,13.19282 1.35268,0.61927 4.77647,0.79613 17.59266,0.90873 l 10.48947,0.0922 2.02025,-2.0725 2.02024,-2.07251 0.004,0.36462 c 0.004,0.35309 -0.0625,0.42478 -2.11559,2.26865 l -2.12005,1.90404 -10.63807,-0.0145 c -5.85094,-0.008 -11.24815,-0.0493 -11.99381,-0.092 z m -7.83697,-30.0447 c 0.28836,-1.58458 0.64358,-2.18923 1.96014,-3.33659 1.21036,-1.05481 2.03243,-1.3531 4.24498,-1.54028 l 1.03606,-0.0876 -1.31728,0.0371 c -2.12243,0.0598 -3.01644,0.42999 -4.42909,1.83402 -1.69503,1.6847 -1.7342,1.8714 -1.76469,8.41131 l -0.0227,4.87882 0.0709,-4.68367 c 0.0537,-3.54917 0.1074,-4.88457 0.22177,-5.51307 z m 12.48592,-5.04942 c -0.92576,-0.016 -2.44063,-0.016 -3.36639,0 -0.92576,0.016 -0.16832,0.0292 1.68319,0.0292 1.85152,0 2.60895,-0.0131 1.6832,-0.0292 z"
         id="path1365"
         transform="matrix(0.26458333,0,0,0.26458333,23.92945,33.72862)" />
      <path
         style="fill:#ff0000;stroke-width:0"
         d="m 207.50886,144.43319 c -0.10046,-5.00685 -0.16155,-9.12447 -0.13576,-9.15026 0.0631,-0.0631 0.24342,1.12011 0.38036,2.49504 0.12006,1.20535 0.12276,11.23639 0.004,14.14859 -0.0506,1.2384 -0.10792,-0.49116 -0.24841,-7.49337 z"
         id="path1404"
         transform="matrix(0.26458333,0,0,0.26458333,23.92945,33.72862)" />
      <path
         style="fill:#ff0000;stroke-width:0"
         d="m 189.83502,165.25322 c -2.81859,-0.007 -7.46139,-0.0533 -8.20647,-0.0815 -4.28536,-0.16198 -6.35477,-0.70902 -7.59105,-2.00668 -0.51081,-0.53615 -0.84526,-1.11729 -1.13305,-1.96875 -0.28584,-0.84567 -0.51021,-2.01814 -0.59519,-3.11025 -0.0921,-1.18372 -0.16906,-3.52584 -0.19635,-5.97656 -0.007,-0.64401 -0.0189,-1.32186 -0.026,-1.50634 l -0.013,-0.33542 h 0.21791 0.2179 l 0.0143,0.54277 c 0.008,0.29852 0.0204,1.14103 0.0278,1.87225 0.0146,1.43997 0.0404,2.287 0.0979,3.22002 0.32537,5.27414 1.06906,7.23158 3.03555,7.98983 0.11464,0.0442 0.2743,0.0973 0.35481,0.1179 0.72628,0.18626 4.44342,0.48702 6.81815,0.55166 1.30815,0.0356 3.88763,0.0746 4.52182,0.0684 0.29717,-0.003 0.39737,-0.008 0.22284,-0.0112 -5.92523,-0.11002 -10.23817,-0.35907 -11.54626,-0.66673 -0.29102,-0.0685 -0.86059,-0.35028 -1.15088,-0.56947 -1.07589,-0.81239 -1.62901,-2.17076 -1.96325,-4.82144 -0.18917,-1.5002 -0.31761,-3.744 -0.36584,-6.39126 -0.007,-0.39579 -0.0195,-0.98583 -0.0273,-1.31118 l -0.0142,-0.59156 h 13.95559 13.9556 v 7.20895 7.20895 l -4.75075,-0.0104 -4.75076,-0.0104 3.57374,0.022 c 1.96556,0.0121 4.10339,0.0288 4.75075,0.0372 l 1.17702,0.0152 v 0.26544 0.26544 l -4.32386,-0.006 c -2.37812,-0.003 -5.20753,-0.008 -6.28758,-0.011 z m 0.12973,-0.6112 c -0.2976,-0.004 -0.79158,-0.004 -1.09773,-1e-5 -0.30615,0.004 -0.0626,0.007 0.5411,0.007 0.60376,0 0.85424,-0.003 0.55663,-0.007 z"
         id="path1521"
         transform="matrix(0.26458333,0,0,0.26458333,23.92945,33.72862)" />
      <path
         style="fill:#ff0000;stroke-width:0"
         d="m 183.50475,165.27802 c -4.01852,-0.0505 -6.33053,-0.32506 -7.80577,-0.92687 -2.13187,-0.86968 -3.06441,-2.49843 -3.42647,-5.98454 -0.10512,-1.01218 -0.15991,-2.01712 -0.19485,-3.57374 -0.0317,-1.41038 -0.0511,-4.57405 -0.027,-4.39094 0.0106,0.0805 0.0263,0.76109 0.0348,1.51243 0.0301,2.64392 0.10498,4.96118 0.1995,6.17012 0.0903,1.15514 0.34902,2.468 0.64922,3.29473 0.1393,0.38362 0.40133,0.91095 0.6003,1.20808 1.04622,1.56239 2.8619,2.26645 6.50635,2.52293 1.48269,0.10435 2.99788,0.13275 8.41597,0.15775 l 3.95185,0.0182 -4.23238,-0.001 c -2.32781,-7.3e-4 -4.42997,-0.004 -4.67147,-0.007 z"
         id="path1636"
         transform="matrix(0.26458333,0,0,0.26458333,23.92945,33.72862)" />
      <path
         style="fill:#ff0000;stroke-width:0"
         d="m 186.82235,165.24478 c -4.5116,-0.0284 -5.70559,-0.0587 -7.19627,-0.18263 -3.16876,-0.26342 -4.87255,-0.90976 -5.89823,-2.23752 -0.49362,-0.639 -0.8557,-1.49612 -1.1078,-2.62236 -0.12301,-0.54955 -0.23352,-1.22312 -0.28717,-1.75028 -0.0563,-0.55287 -0.1214,-1.79307 -0.15454,-2.94254 l -0.008,-0.28968 h 0.22084 0.22085 l 0.006,0.0396 c 0.003,0.0218 0.012,0.16313 0.0195,0.31407 0.0181,0.36913 0.0665,1.08166 0.10426,1.53683 0.30158,3.63188 0.89817,5.42592 2.10238,6.32215 0.41333,0.30763 0.94314,0.53569 1.44642,0.62262 0.86088,0.1487 3.4076,0.36346 5.58015,0.47056 0.68265,0.0336 2.96385,0.0777 5.32402,0.10273 0.45692,0.005 0.4662,0.005 0.14636,-0.005 -0.18783,-0.005 -0.64065,-0.0161 -1.00626,-0.0236 -5.04965,-0.10355 -9.26706,-0.37025 -10.3431,-0.65408 -0.21003,-0.0554 -0.61185,-0.24291 -0.87508,-0.40836 -0.37534,-0.2359 -0.7149,-0.55878 -0.9738,-0.92594 -0.77167,-1.09438 -1.18829,-2.93432 -1.40721,-6.2148 -0.0316,-0.47268 -0.0615,-1.01037 -0.0615,-1.10371 v -0.0733 h 8.40987 8.40987 v 5.01909 5.01909 l -0.6129,-0.002 c -0.3371,-0.001 -1.26331,-0.006 -2.05825,-0.0111 z m 2.09484,-0.60565 c -0.0319,-0.003 -0.084,-0.003 -0.11587,0 -0.0319,0.003 -0.006,0.005 0.0579,0.005 0.0637,0 0.0898,-0.002 0.0579,-0.005 z"
         id="path1675"
         transform="matrix(0.26458333,0,0,0.26458333,23.92945,33.72862)" />
      <path
         style="fill:#ff0000;stroke-width:0"
         d="m 184.42562,164.57893 c -0.0738,-0.002 -0.44702,-0.009 -0.8294,-0.0161 -1.21388,-0.0228 -1.49698,-0.0333 -2.50039,-0.0924 -1.36633,-0.0805 -3.10457,-0.21397 -3.56154,-0.27351 l -0.0854,-0.0111 0.0976,0.005 c 0.0537,0.003 0.21559,0.0161 0.35982,0.0295 1.4925,0.13864 3.79637,0.25927 6.6352,0.34741 0.34122,0.0106 0.42668,0.0155 0.26223,0.0149 -0.13417,-4.5e-4 -0.30431,-0.002 -0.37811,-0.004 z"
         id="path1714"
         transform="matrix(0.26458333,0,0,0.26458333,23.92945,33.72862)" />
      <path
         style="fill:#ff0000;stroke-width:0"
         d="m 175.69974,163.87901 c -1.73251,-0.65943 -2.49841,-2.27969 -2.88535,-6.10396 -0.0596,-0.58901 -0.13097,-1.53585 -0.16458,-2.18327 -0.007,-0.13417 -0.0155,-0.27276 -0.0189,-0.30798 -0.005,-0.0477 -0.002,-0.064 0.01,-0.064 0.0122,0 0.0194,0.0708 0.0312,0.30797 0.0909,1.83244 0.25897,3.39526 0.48483,4.50845 0.39571,1.95038 1.022,3.00888 2.1458,3.62668 0.12659,0.0696 0.39563,0.1968 0.4968,0.2349 0.0319,0.012 0.0579,0.0238 0.0579,0.0263 0,0.0112 -0.0397,-1.9e-4 -0.15745,-0.045 z"
         id="path1753"
         transform="matrix(0.26458333,0,0,0.26458333,23.92945,33.72862)" />
      <path
         style="fill:#ff0000;stroke-width:0"
         d="m 177.31474,164.17729 c -0.0134,-0.002 -0.14789,-0.0182 -0.29883,-0.0356 -0.55322,-0.0637 -0.9192,-0.12518 -1.07944,-0.18146 -0.094,-0.033 -0.0848,-0.0426 0.0122,-0.0128 0.17704,0.0544 0.65977,0.13352 1.2202,0.1999 0.16073,0.019 0.26479,0.0344 0.23125,0.0343 -0.0335,-2e-4 -0.072,-0.002 -0.0854,-0.004 z"
         id="path1792"
         transform="matrix(0.26458333,0,0,0.26458333,23.92945,33.72862)" />
      <path
         style="fill:#ff0000;stroke-width:0"
         d="m 172.64135,155.22261 c -0.01,-0.006 -0.0185,-0.11866 -0.0276,-0.35048 -0.0183,-0.46096 -0.0378,-1.26592 -0.0358,-1.47582 9.5e-4,-0.0982 0.008,0.0314 0.0173,0.30492 0.0221,0.67201 0.0537,1.45756 0.0602,1.49719 0.006,0.037 0.006,0.037 -0.0141,0.0242 z"
         id="path1870"
         transform="matrix(0.26458333,0,0,0.26458333,23.92945,33.72862)" />
      <path
         style="fill:#ff0000;stroke-width:0"
         d="m 172.03237,148.65165 c -5.7e-4,-2.37992 0.001,-2.74137 0.008,-1.6466 0.005,0.77146 0.0118,1.85548 0.016,2.40892 0.004,0.55344 0.004,0.99802 -10e-4,0.98796 -0.005,-0.0101 -0.0118,0.27809 -0.0153,0.64034 -0.003,0.36226 -0.007,-0.71352 -0.007,-2.39062 z"
         id="path1909"
         transform="matrix(0.26458333,0,0,0.26458333,23.92945,33.72862)" />
      <path
         style="fill:#ff0000;stroke-width:0"
         d="m 176.23547,130.62704 c 0.0114,-0.0129 0.30863,-0.1389 0.45112,-0.1913 0.42411,-0.15596 0.96273,-0.23986 1.92104,-0.29926 0.31204,-0.0193 0.50227,-0.0223 0.29273,-0.005 -1.16823,0.0989 -1.90147,0.22815 -2.48211,0.43758 -0.15867,0.0572 -0.19174,0.0677 -0.18278,0.0576 z"
         id="path1948"
         transform="matrix(0.26458333,0,0,0.26458333,23.92945,33.72862)" />
      <path
         style="fill:#ff0000;stroke-width:0"
         d="m 174.62039,131.74276 c 0.35075,-0.34296 0.58871,-0.54527 0.82783,-0.70379 0.14704,-0.0975 0.29714,-0.18285 0.30598,-0.17402 0.003,0.003 -0.0399,0.0334 -0.0954,0.0674 -0.29217,0.17854 -0.6226,0.44618 -1.05979,0.8584 -0.0916,0.0864 -0.17121,0.15683 -0.17686,0.15653 -0.006,-3e-4 0.0836,-0.0923 0.19829,-0.20447 z"
         id="path1987"
         transform="matrix(0.26458333,0,0,0.26458333,23.92945,33.72862)" />
      <path
         style="fill:#ff0000;stroke-width:0"
         d="m 173.74113,132.63984 c 1.8e-4,-0.008 0.10936,-0.13038 0.25217,-0.28266 0.13323,-0.14206 0.44876,-0.45439 0.45388,-0.44928 0.002,0.002 -0.004,0.0113 -0.0134,0.021 -0.0101,0.0106 -0.014,0.0185 -0.01,0.0199 0.004,0.001 -0.072,0.0781 -0.16874,0.17072 -0.18796,0.17994 -0.29859,0.29158 -0.41001,0.41374 -0.0933,0.10227 -0.10432,0.11357 -0.10417,0.10658 z"
         id="path2285"
         transform="matrix(0.26458333,0,0,0.26458333,23.92945,33.72862)" />
      <path
         style="fill:#ff0000;stroke-width:0"
         d="m 205.13595,132.16301 c -1.12855,-1.12857 -2.04726,-2.05195 -2.04158,-2.05195 0.006,0 0.14538,0.0458 0.31046,0.10169 1.93116,0.65433 3.0625,1.79811 3.71738,3.75825 0.0426,0.12764 0.0749,0.23475 0.0716,0.23802 -0.003,0.003 -0.92931,-0.91743 -2.05785,-2.04601 z m 1.91351,1.7127 c -0.0336,-0.14327 -0.33198,-0.79703 -0.49387,-1.08223 -0.4422,-0.779 -1.01714,-1.39825 -1.71931,-1.85179 -0.30517,-0.19711 -0.95877,-0.52531 -1.14415,-0.57452 -0.16179,-0.0429 -0.14895,0.0403 0.0423,0.27438 0.14504,0.17751 0.29592,0.33631 1.09388,1.15131 0.65676,0.67078 1.77902,1.76961 2.05914,2.01615 0.14299,0.12585 0.17942,0.14085 0.16201,0.0667 z"
         id="path2663"
         transform="matrix(0.26458333,0,0,0.26458333,23.92945,33.72862)" />
      <path
         style="fill:#ff0000;stroke-width:0"
         d="m 199.04767,129.94002 c -0.0285,-0.006 0.35576,-0.0172 0.85384,-0.0239 1.17608,-0.0159 1.70767,-0.0412 1.70767,-0.0814 0,-0.0215 -0.0328,-0.0288 -0.34498,-0.0764 -1.63013,-0.2486 -3.37973,-0.33714 -6.66252,-0.33719 -1.22423,-1e-5 -1.68612,-0.005 -1.68612,-0.0192 0,-0.0245 4.13608,-0.01 4.76942,0.0172 1.78354,0.0754 2.84071,0.16842 3.86383,0.34012 0.27541,0.0462 0.92662,0.1777 0.93865,0.18952 0.0124,0.0122 -3.38538,0.004 -3.43979,-0.009 z"
         id="path2702"
         transform="matrix(0.26458333,0,0,0.26458333,23.92945,33.72862)" />
    </g>
  </g>
</svg>
